<svg version="1" xmlns="http://www.w3.org/2000/svg" width="933.333" height="933.333" viewBox="0 0 700.000000 700.000000"><path d="M0 350v350h700V0H0v350zm508.9-224.3c2.3 1.9 13.7 14.9 25.4 28.8 69.6 82.7 67.3 79.7 67.1 87.4 0 2.5-.8 6-1.7 7.8-4.1 7.7-21.7 22.5-30.2 25.3-5.6 1.9-11.7.8-16.4-2.9-3.8-3-82.1-95.5-88.9-104.9-4.3-6.1-5.6-11-4.2-16.2 2.8-10.4 23.5-28.2 34.8-29.9 5.9-.9 8.9.1 14.1 4.6zm85.1 0c7.1 6.6 18.3 20.1 21.2 25.7 2.8 5.5 2.6 9.9-.8 14.8-2.5 3.6-24.3 23.8-25.7 23.8-.3 0-9.4-10.6-20.3-23.6l-19.8-23.7 3.9-3.4c6.8-5.8 20.8-16.2 24-17.8 1.6-.8 4.9-1.5 7.2-1.5 3.7 0 4.9.6 10.3 5.7zm-173.3 11.8c8.7 3.6 7.8 2.7 84.4 94 60.9 72.7 59.2 70.5 63.4 78.9 6.2 12.3 4.1 20.9-8.5 33.6-12.8 13-25.5 20.9-35.1 21.7-7.6.7-13.2-2-21.9-10.6-5.9-5.9-111.1-130.6-127-150.6-11.7-14.8-14.3-24-9.6-34 4.8-10.2 21.2-25.1 34.7-31.4 7.3-3.5 13.8-4 19.6-1.6zm2.9 151c11.3 13.6 19.3 24 18.8 24.4-1.2 1.2-65.6 55.3-108.4 91.1-19.3 16.2-35.8 29.5-36.5 29.5-1.2 0-39.5-44.8-39.5-46.3 0-.5 22.8-20 50.8-43.4 27.9-23.4 60.4-50.7 72.2-60.7 11.8-9.9 21.8-18 22.2-18.1.3 0 9.5 10.6 20.4 23.5zm-237.7 47.7c2.5 1.2 7.5 5.1 11.1 8.7 5.9 5.9 111.1 130.7 126.9 150.5 3.5 4.5 7.7 10.9 9.4 14.4 2.5 5.5 2.9 7.1 2.4 11.8-.7 7-4.2 12.9-12.3 21-12.3 12.4-24.9 20.2-34 21.1-8.2.9-13.3-1.6-22.4-10.6-6.3-6.3-97.9-114.6-124.3-147-14.1-17.4-17.3-27-12.3-37.6 4.8-10.2 21.2-25.1 34.7-31.4 7.9-3.8 14.3-4.1 20.8-.9zm-42.3 89.4c1.9.9 6.3 4.9 9.8 8.8 11.3 12.8 80.8 95.9 83.3 99.7 7.2 10.8 4 19.8-11.5 33.2-13.6 11.6-24.1 14.5-31.8 8.8-5.5-4-7.5-6.4-39.6-44.6-15.6-18.7-33.5-40.1-39.8-47.5-11.2-13.4-16-21.2-16-26 .1-6.5 7.2-16.2 18.1-24.6 12-9.2 19.8-11.4 27.5-7.8zm-12 108l19.8 23.7-2.9 2.4c-9.5 7.8-21.4 16.7-24.7 18.4-2 1-5.5 1.9-7.7 1.9-3.5 0-4.8-.8-10.1-5.7-8.3-7.6-18.7-20.6-21.7-27.1-2.4-5.2-2.5-5.5-.9-9.6.9-2.5 4.1-6.6 7.8-10.3 7.2-7 19-17.2 19.9-17.3.4 0 9.6 10.6 20.5 23.6z"/></svg>